<svg width="360" height="251" viewBox="0 0 360 251" fill="none" xmlns="http://www.w3.org/2000/svg">
<path d="M0.0693359 10C0.0693359 4.47715 4.54649 0 10.0693 0H350C355.523 0 360 4.47715 360 10V231C360 242.046 351.046 251 340 251H20.0693C9.02365 251 0.0693359 242.046 0.0693359 231V10Z" fill="#FBD060"/>
<mask id="mask0" mask-type="alpha" maskUnits="userSpaceOnUse" x="0" y="0" width="360" height="251">
<rect width="359.931" height="251" fill="#C4C4C4"/>
</mask>
<g mask="url(#mask0)">
<path d="M-33.9932 -10.9902C-33.9932 -10.9902 -3.44564 15.9761 20.1373 15.7711C43.3137 15.5697 49.9339 -10.4061 73.1037 -10.9902C97.4985 -11.6052 105.189 16.9499 129.562 15.7711C151.706 14.7003 157.452 -10.6773 179.619 -10.9902C202.388 -11.3117 208.653 15.2718 231.421 15.7711C255.203 16.2927 262.346 -11.0909 286.133 -10.9902C309.717 -10.8904 316.68 15.7711 340.264 15.7711C363.847 15.7711 394.394 -10.9902 394.394 -10.9902" stroke="white"/>
<path d="M-33.9932 104.209C-33.9932 104.209 -3.44564 131.176 20.1373 130.97C43.3137 130.769 49.9339 104.793 73.1037 104.209C97.4985 103.595 105.189 132.149 129.562 130.97C151.706 129.9 157.452 104.522 179.619 104.209C202.388 103.888 208.653 130.471 231.421 130.97C255.203 131.493 262.346 104.109 286.133 104.209C309.717 104.309 316.68 130.97 340.264 130.97C363.847 130.97 394.394 104.209 394.394 104.209" stroke="white"/>
<path d="M-33.9932 219.398C-33.9932 219.398 -3.44564 246.366 20.1373 246.16C43.3137 245.958 49.9339 219.983 73.1037 219.398C97.4985 218.784 105.189 247.338 129.562 246.16C151.706 245.089 157.452 219.711 179.619 219.398C202.388 219.077 208.653 245.661 231.421 246.16C255.203 246.682 262.346 219.298 286.133 219.398C309.717 219.499 316.68 246.16 340.264 246.16C363.847 246.16 394.394 219.398 394.394 219.398" stroke="white"/>
<path d="M-33.9932 27.416C-33.9932 27.416 -3.44564 54.3824 20.1373 54.1774C43.3137 53.976 49.9339 28.0001 73.1037 27.416C97.4985 26.8011 105.189 55.3562 129.562 54.1774C151.706 53.1066 157.452 27.729 179.619 27.416C202.388 27.0946 208.653 53.6781 231.421 54.1774C255.203 54.699 262.346 27.3153 286.133 27.416C309.717 27.5159 316.68 54.1774 340.264 54.1774C363.847 54.1774 394.394 27.416 394.394 27.416" stroke="white"/>
<path d="M-33.9932 27.416C-33.9932 27.416 -3.44564 54.3824 20.1373 54.1774C43.3137 53.976 49.9339 28.0001 73.1037 27.416C97.4985 26.8011 105.189 55.3562 129.562 54.1774C151.706 53.1066 157.452 27.729 179.619 27.416C202.388 27.0946 208.653 53.6781 231.421 54.1774C255.203 54.699 262.346 27.3153 286.133 27.416C309.717 27.5159 316.68 54.1774 340.264 54.1774C363.847 54.1774 394.394 27.416 394.394 27.416" stroke="white"/>
<path d="M-33.9932 142.616C-33.9932 142.616 -3.44564 169.582 20.1373 169.378C43.3137 169.176 49.9339 143.2 73.1037 142.616C97.4985 142.001 105.189 170.556 129.562 169.378C151.706 168.306 157.452 142.929 179.619 142.616C202.388 142.294 208.653 168.878 231.421 169.378C255.203 169.899 262.346 142.515 286.133 142.616C309.717 142.716 316.68 169.378 340.264 169.378C363.847 169.378 394.394 142.616 394.394 142.616" stroke="white"/>
<path d="M-33.9932 65.8125C-33.9932 65.8125 -3.44564 92.7789 20.1373 92.5739C43.3137 92.3725 49.9339 66.3966 73.1037 65.8125C97.4985 65.1976 105.189 93.7527 129.562 92.5739C151.706 91.5031 157.452 66.1255 179.619 65.8125C202.388 65.491 208.653 92.0746 231.421 92.5739C255.203 93.0955 262.346 65.7118 286.133 65.8125C309.717 65.9124 316.68 92.5739 340.264 92.5739C363.847 92.5739 394.394 65.8125 394.394 65.8125" stroke="white"/>
<path d="M-33.9932 181.012C-33.9932 181.012 -3.44564 207.978 20.1373 207.774C43.3137 207.572 49.9339 181.596 73.1037 181.012C97.4985 180.397 105.189 208.952 129.562 207.774C151.706 206.702 157.452 181.325 179.619 181.012C202.388 180.69 208.653 207.274 231.421 207.774C255.203 208.295 262.346 180.911 286.133 181.012C309.717 181.112 316.68 207.774 340.264 207.774C363.847 207.774 394.394 181.012 394.394 181.012" stroke="white"/>
</g>
</svg>
