<svg width="360" height="251" viewBox="0 0 360 251" fill="none" xmlns="http://www.w3.org/2000/svg">
<path d="M0 10C0 4.47715 4.47715 0 10 0H350C355.523 0 360 4.47715 360 10V231C360 242.046 351.046 251 340 251H20C8.95432 251 0 242.046 0 231V10Z" fill="#168AAF"/>
<mask id="mask0" mask-type="alpha" maskUnits="userSpaceOnUse" x="0" y="0" width="360" height="251">
<rect width="360" height="251" fill="#C4C4C4"/>
</mask>
<g mask="url(#mask0)">
<path d="M-34 -10.9902C-34 -10.9902 -3.44661 15.9761 20.1409 15.7711C43.3217 15.5697 49.9432 -10.4061 73.1175 -10.9902C97.5169 -11.6052 105.208 16.9499 129.587 15.7711C151.735 14.7003 157.482 -10.6773 179.653 -10.9902C202.427 -11.3117 208.693 15.2718 231.465 15.7711C255.252 16.2927 262.396 -11.0909 286.188 -10.9902C309.776 -10.8904 316.741 15.7711 340.329 15.7711C363.917 15.7711 394.47 -10.9902 394.47 -10.9902" stroke="white"/>
<path d="M-34 104.209C-34 104.209 -3.44661 131.176 20.1409 130.97C43.3217 130.769 49.9432 104.793 73.1175 104.209C97.5169 103.595 105.208 132.149 129.587 130.97C151.735 129.9 157.482 104.522 179.653 104.209C202.427 103.888 208.693 130.471 231.465 130.97C255.252 131.493 262.396 104.109 286.188 104.209C309.776 104.309 316.741 130.97 340.329 130.97C363.917 130.97 394.47 104.209 394.47 104.209" stroke="white"/>
<path d="M-34 219.398C-34 219.398 -3.44661 246.366 20.1409 246.16C43.3217 245.958 49.9432 219.983 73.1175 219.398C97.5169 218.784 105.208 247.338 129.587 246.16C151.735 245.089 157.482 219.711 179.653 219.398C202.427 219.077 208.693 245.661 231.465 246.16C255.252 246.682 262.396 219.298 286.188 219.398C309.776 219.499 316.741 246.16 340.329 246.16C363.917 246.16 394.47 219.398 394.47 219.398" stroke="white"/>
<path d="M-34 27.416C-34 27.416 -3.44661 54.3824 20.1409 54.1774C43.3217 53.976 49.9432 28.0001 73.1175 27.416C97.5169 26.8011 105.208 55.3562 129.587 54.1774C151.735 53.1066 157.482 27.729 179.653 27.416C202.427 27.0946 208.693 53.6781 231.465 54.1774C255.252 54.699 262.396 27.3153 286.188 27.416C309.776 27.5159 316.741 54.1774 340.329 54.1774C363.917 54.1774 394.47 27.416 394.47 27.416" stroke="white"/>
<path d="M-34 27.416C-34 27.416 -3.44661 54.3824 20.1409 54.1774C43.3217 53.976 49.9432 28.0001 73.1175 27.416C97.5169 26.8011 105.208 55.3562 129.587 54.1774C151.735 53.1066 157.482 27.729 179.653 27.416C202.427 27.0946 208.693 53.6781 231.465 54.1774C255.252 54.699 262.396 27.3153 286.188 27.416C309.776 27.5159 316.741 54.1774 340.329 54.1774C363.917 54.1774 394.47 27.416 394.47 27.416" stroke="white"/>
<path d="M-34 142.615C-34 142.615 -3.44661 169.581 20.1409 169.377C43.3217 169.175 49.9432 143.199 73.1175 142.615C97.5169 142 105.208 170.555 129.587 169.377C151.735 168.305 157.482 142.928 179.653 142.615C202.427 142.293 208.693 168.877 231.465 169.377C255.252 169.898 262.396 142.514 286.188 142.615C309.776 142.715 316.741 169.377 340.329 169.377C363.917 169.377 394.47 142.615 394.47 142.615" stroke="white"/>
<path d="M-34 65.8125C-34 65.8125 -3.44661 92.7789 20.1409 92.5739C43.3217 92.3725 49.9432 66.3966 73.1175 65.8125C97.5169 65.1976 105.208 93.7527 129.587 92.5739C151.735 91.5031 157.482 66.1255 179.653 65.8125C202.427 65.491 208.693 92.0746 231.465 92.5739C255.252 93.0955 262.396 65.7118 286.188 65.8125C309.776 65.9124 316.741 92.5739 340.329 92.5739C363.917 92.5739 394.47 65.8125 394.47 65.8125" stroke="white"/>
<path d="M-34 181.012C-34 181.012 -3.44661 207.978 20.1409 207.773C43.3217 207.572 49.9432 181.596 73.1175 181.012C97.5169 180.396 105.208 208.952 129.587 207.773C151.735 206.702 157.482 181.325 179.653 181.012C202.427 180.689 208.693 207.274 231.465 207.773C255.252 208.294 262.396 180.911 286.188 181.012C309.776 181.112 316.741 207.773 340.329 207.773C363.917 207.773 394.47 181.012 394.47 181.012" stroke="white"/>
</g>
</svg>
