<svg width="247" height="42" viewBox="0 0 247 42" fill="none" xmlns="http://www.w3.org/2000/svg">
<path d="M65.216 7.22852H71.6496V23.672C71.6496 27.2171 70.7075 29.9451 68.8233 31.856C66.9391 33.7417 64.2491 34.6846 60.7535 34.6846C57.2826 34.6846 54.605 33.7417 52.7208 31.856C50.8366 29.9451 49.8945 27.2171 49.8945 23.672V7.22852H56.3281V23.5211C56.3281 25.2811 56.7 26.6263 57.4437 27.5566C58.2123 28.4869 59.3155 28.952 60.7535 28.952C62.2162 28.952 63.3194 28.4869 64.0632 27.5566C64.8318 26.6263 65.216 25.2811 65.216 23.5211V7.22852Z" fill="#0B3661"/>
<path d="M84.2418 7.22852V28.5371H96.2164V34.0812H77.8083V7.22852H84.2418Z" fill="#0B3661"/>
<path d="M115.813 7.22852V12.7725H107.706V34.0812H101.273V12.7725H93.1655V7.22852H115.813Z" fill="#0B3661"/>
<path d="M119.426 34.0812V7.22852H130.173C136.668 7.22852 139.916 9.78052 139.916 14.8845C139.916 16.5188 139.482 17.9143 138.615 19.0708C137.747 20.2023 136.557 20.9943 135.045 21.4468V21.5223C135.987 21.8491 136.743 22.4023 137.313 23.1817C137.883 23.936 138.478 25.1806 139.098 26.9154L141.664 34.0812H134.747L132.739 28.0091C132.268 26.6011 131.71 25.6331 131.065 25.1051C130.446 24.552 129.516 24.2754 128.276 24.2754H125.859V34.0812H119.426ZM129.132 12.2822H125.859V19.3348H129.392C132.169 19.3348 133.557 18.128 133.557 15.7143C133.557 13.4262 132.082 12.2822 129.132 12.2822Z" fill="#0B3661"/>
<path d="M162.585 34.0812L160.911 28.3863H151.317L149.606 34.0812H142.838L151.875 7.22852H160.316L169.353 34.0812H162.585ZM152.916 23.0308H159.35L158.792 21.2206C157.726 17.6503 156.833 14.3942 156.114 11.4525H156.04C155.296 14.5702 154.428 17.8263 153.437 21.2206L152.916 23.0308Z" fill="#0B3661"/>
<path d="M196.401 7.22852V34.0812H187.104L182.492 23.4834C180.856 19.7371 179.418 16.1543 178.178 12.7348H178.104C178.302 16.7577 178.402 20.5291 178.402 24.0491V34.0812H172.228V7.22852H181.488L186.137 17.8263C187.773 21.6731 189.211 25.256 190.45 28.5749H190.525C190.327 25.2308 190.227 21.4594 190.227 17.2605V7.22852H196.401Z" fill="#0B3661"/>
<path d="M221.457 7.22852V12.6971H209.185V17.7885H220.639V23.1817H209.185V28.6126H221.755V34.0812H202.752V7.22852H221.457Z" fill="#0B3661"/>
<path d="M246.93 7.22852V12.7725H238.823V34.0812H232.39V12.7725H224.283V7.22852H246.93Z" fill="#0B3661"/>
<path d="M14.5664 8.57129H24.7086V18.857H14.5664V8.57129Z" fill="#34A0D9"/>
<path d="M14.5664 23.1426H24.7086V33.4283H14.5664V23.1426Z" fill="#ECBA4D"/>
<path fill-rule="evenodd" clip-rule="evenodd" d="M17.9473 0H21.328V8.57145H17.9473V0ZM0.930664 21.0576C0.930664 11.824 7.47462 4.1404 16.1157 2.51663V5.72484C9.19799 7.29984 4.02954 13.5666 4.02954 21.0577C4.02954 28.5487 9.19799 34.8155 16.1157 36.3905V39.5986C7.47462 37.9748 0.930664 30.2912 0.930664 21.0576ZM22.9335 39.5986C31.5747 37.9749 38.1188 30.2913 38.1188 21.0576C38.1188 11.8239 31.5747 4.1403 22.9335 2.5166V5.72486C29.8512 7.2999 35.0196 13.5667 35.0196 21.0577C35.0196 28.5487 29.8512 34.8154 22.9335 36.3905V39.5986ZM21.328 33.4287H17.9473V42.0002H21.328V33.4287Z" fill="#0B3661"/>
</svg>
