<svg width="21" height="21" viewBox="0 0 21 21" fill="none" xmlns="http://www.w3.org/2000/svg">
<path d="M17.1979 0H4.83054C4.15096 0 3.60008 0.550881 3.60008 1.23047V1.37411H3.18898C3.03082 1.37411 2.88702 1.43415 2.77784 1.53206C2.65196 1.64497 2.57227 1.80838 2.57227 1.99078C2.57227 2.17317 2.65192 2.33658 2.77784 2.44949C2.88698 2.5474 3.03078 2.60745 3.18898 2.60745H3.60012V4.2105H3.18898C3.03082 4.2105 2.88702 4.27055 2.77784 4.36845C2.65196 4.48137 2.57227 4.64477 2.57227 4.82717C2.57227 5.00957 2.65192 5.17297 2.77784 5.28589C2.88698 5.38379 3.03078 5.44384 3.18898 5.44384H3.60012V7.04685H3.18898C3.03082 7.04685 2.88702 7.1069 2.77784 7.2048C2.65196 7.31772 2.57227 7.48113 2.57227 7.66352C2.57227 7.84592 2.65192 8.00933 2.77784 8.12224C2.88698 8.22015 3.03078 8.28019 3.18898 8.28019H3.60012V9.88321H3.18898C3.03082 9.88321 2.88702 9.94325 2.77784 10.0412C2.65196 10.1541 2.57227 10.3175 2.57227 10.4999C2.57227 10.6823 2.65192 10.8457 2.77784 10.9586C2.88698 11.0565 3.03078 11.1165 3.18898 11.1165H3.60012V12.7196H3.18898C3.03082 12.7196 2.88702 12.7796 2.77784 12.8775C2.65196 12.9904 2.57227 13.1538 2.57227 13.3362C2.57227 13.5186 2.65192 13.682 2.77784 13.7949C2.88698 13.8929 3.03078 13.9529 3.18898 13.9529H3.60012V15.5559H3.18898C3.03082 15.5559 2.88702 15.616 2.77784 15.7139C2.65196 15.8268 2.57227 15.9902 2.57227 16.1726C2.57227 16.355 2.65192 16.5184 2.77784 16.6313C2.88698 16.7292 3.03078 16.7893 3.18898 16.7893H3.60012V18.3923H3.18898C3.03082 18.3923 2.88702 18.4524 2.77784 18.5503C2.65196 18.6632 2.57227 18.8266 2.57227 19.009C2.57227 19.1914 2.65192 19.3548 2.77784 19.4677C2.88698 19.5656 3.03078 19.6256 3.18898 19.6256H3.60008V19.6259V19.7695C3.60008 20.4491 4.15096 21 4.83054 21H17.1979C17.8775 21 18.4284 20.4491 18.4284 19.7695V1.23047C18.4284 0.550881 17.8775 0 17.1979 0ZM16.185 4.62328C16.185 4.8503 16.0009 5.03442 15.7738 5.03442H6.25465C6.02759 5.03442 5.84351 4.85034 5.84351 4.62328V3.49982H5.84355C5.84355 3.2728 6.02763 3.08868 6.25469 3.08868H15.7738C16.0009 3.08868 16.185 3.27276 16.185 3.49982V4.62328Z" fill="black"/>
</svg>
