<svg width="21" height="21" viewBox="0 0 21 21" fill="none" xmlns="http://www.w3.org/2000/svg">
<g clip-path="url(#clip0)">
<path d="M16.625 4.375V2.40625C16.625 1.07888 15.5461 0 14.2187 0H6.78125C5.45387 0 4.375 1.07888 4.375 2.40625V4.375H16.625Z" fill="black"/>
<path d="M18.5938 5.25H2.40625C1.07888 5.25 0 6.32888 0 7.65625V13.3438C0 14.6711 1.07888 15.75 2.40625 15.75H3.5V12.0312C3.5 11.1869 4.18687 10.5 5.03125 10.5H15.9688C16.8131 10.5 17.5 11.1869 17.5 12.0312V15.75H18.5938C19.9211 15.75 21 14.6711 21 13.3438V7.65625C21 6.32888 19.9211 5.25 18.5938 5.25Z" fill="black"/>
<path d="M15.9688 11.373H5.03125C4.669 11.373 4.375 11.667 4.375 12.0293V18.5918C4.375 19.9192 5.45388 20.998 6.78125 20.998H14.2188C15.5461 20.998 16.625 19.9192 16.625 18.5918V12.0293C16.625 11.667 16.331 11.373 15.9688 11.373ZM7.65625 14.4355H8.96875C9.331 14.4355 9.625 14.7295 9.625 15.0918C9.625 15.454 9.331 15.748 8.96875 15.748H7.65625C7.294 15.748 7 15.454 7 15.0918C7 14.7295 7.294 14.4355 7.65625 14.4355ZM12.4688 18.373H7.65625C7.294 18.373 7 18.079 7 17.7168C7 17.3545 7.294 17.0605 7.65625 17.0605H12.4688C12.831 17.0605 13.125 17.3545 13.125 17.7168C13.125 18.079 12.831 18.373 12.4688 18.373Z" fill="black"/>
</g>
<defs>
<clipPath id="clip0">
<rect width="21" height="21" fill="white"/>
</clipPath>
</defs>
</svg>
