<svg width="24" height="24" viewBox="0 0 24 24" fill="none" xmlns="http://www.w3.org/2000/svg">
<path fill-rule="evenodd" clip-rule="evenodd" d="M12.001 13.0613L16.6678 8.58273C16.783 8.47023 16.9732 8.47291 17.0911 8.58808L17.9109 9.38898C18.0287 9.50416 18.0314 9.69166 17.9162 9.80416L12.218 15.2738C12.159 15.3327 12.0787 15.3595 12.001 15.3542C11.9206 15.3568 11.8429 15.33 11.784 15.2738L6.08573 9.80416C5.97053 9.69166 5.97321 9.50416 6.09108 9.38898L6.91086 8.58808C7.02874 8.47291 7.21895 8.47023 7.33414 8.58273L12.001 13.0613Z" fill="black"/>
<mask id="mask0" mask-type="alpha" maskUnits="userSpaceOnUse" x="6" y="8" width="13" height="8">
<path fill-rule="evenodd" clip-rule="evenodd" d="M12.001 13.0613L16.6678 8.58273C16.783 8.47023 16.9732 8.47291 17.0911 8.58808L17.9109 9.38898C18.0287 9.50416 18.0314 9.69166 17.9162 9.80416L12.218 15.2738C12.159 15.3327 12.0787 15.3595 12.001 15.3542C11.9206 15.3568 11.8429 15.33 11.784 15.2738L6.08573 9.80416C5.97053 9.69166 5.97321 9.50416 6.09108 9.38898L6.91086 8.58808C7.02874 8.47291 7.21895 8.47023 7.33414 8.58273L12.001 13.0613Z" fill="white"/>
</mask>
<g mask="url(#mask0)">
<rect x="6" y="6" width="12" height="12" fill="black"/>
</g>
</svg>
