<svg width="42" height="42" viewBox="0 0 42 42" fill="none" xmlns="http://www.w3.org/2000/svg">
<path d="M10.7996 10.061L30.7207 20.0683C30.8053 20.1109 30.8758 20.1734 30.925 20.2493C30.9741 20.3252 31 20.4118 31 20.5C31 20.5882 30.9741 20.6748 30.925 20.7507C30.8758 20.8266 30.8053 20.8891 30.7207 20.9317L10.7996 30.939C10.7174 30.9803 10.6249 31.0013 10.5312 30.9999C10.4374 30.9986 10.3457 30.975 10.265 30.9314C10.1843 30.8879 10.1174 30.8258 10.0709 30.7515C10.0245 30.6771 10 30.5929 10 30.5073V10.4927C10 10.4071 10.0245 10.3229 10.0709 10.2485C10.1174 10.1742 10.1843 10.1121 10.265 10.0686C10.3457 10.025 10.4374 10.0014 10.5312 10.0001C10.6249 9.99874 10.7174 10.0197 10.7996 10.061ZM12.1581 21.4856V28.007L27.1027 20.5L12.1581 12.993V19.5144H17.5532V21.4856H12.1581Z" fill="#34A0D9"/>
</svg>
