<svg width="42" height="42" viewBox="0 0 42 42" fill="none" xmlns="http://www.w3.org/2000/svg">
<path d="M29.1989 10.5185C28.8883 10.2592 28.5134 10.0892 28.1142 10.0268C27.715 9.9643 27.3064 10.0116 26.9319 10.1637L7.38054 18.0852C6.96253 18.2579 6.60672 18.554 6.3603 18.9343C6.11389 19.3146 5.98852 19.7611 6.00083 20.2146C6.01314 20.6681 6.16254 21.1071 6.42922 21.4733C6.6959 21.8396 7.06725 22.1159 7.494 22.2654L11.4488 23.6461L13.6525 30.9621C13.6827 31.0597 13.7264 31.1525 13.7824 31.238C13.7911 31.2511 13.8031 31.2599 13.8118 31.2741C13.8761 31.3639 13.9538 31.4433 14.042 31.5095C14.0667 31.5289 14.0921 31.5471 14.1184 31.5642C14.2217 31.6331 14.3361 31.6834 14.4566 31.7131L14.4708 31.7142L14.4773 31.7175C14.5502 31.7322 14.6244 31.7395 14.6988 31.7394L14.7184 31.7361C14.8302 31.7343 14.9409 31.7151 15.0468 31.6792C15.0719 31.6704 15.0926 31.6573 15.1166 31.6464C15.1958 31.6138 15.2709 31.5719 15.3403 31.5215C15.3955 31.4744 15.4508 31.4274 15.5061 31.3803L18.4539 28.1143L22.8505 31.5325C23.2375 31.835 23.7139 31.9995 24.2044 32C24.7185 31.9994 25.2168 31.8214 25.6157 31.4959C26.0145 31.1703 26.2897 30.7171 26.3951 30.2121L29.955 12.6754C30.0355 12.2809 30.0077 11.8718 29.8745 11.4919C29.7413 11.112 29.5078 10.7755 29.1989 10.5185ZM15.1308 23.9942C14.9797 24.1456 14.8765 24.3383 14.8341 24.5483L14.4959 26.195L13.6405 23.3559L18.0754 21.0381L15.1308 23.9942ZM24.1881 29.8015L18.9918 25.7614C18.7743 25.593 18.5017 25.513 18.2281 25.5374C17.9546 25.5617 17.7002 25.6886 17.5157 25.8928L16.5709 26.9384L16.9047 25.3103L24.6321 17.5553C24.8154 17.3701 24.9269 17.1254 24.9463 16.8651C24.9656 16.6048 24.8917 16.3461 24.7379 16.1357C24.584 15.9252 24.3603 15.7769 24.107 15.7174C23.8538 15.6579 23.5877 15.6911 23.3568 15.8111L12.267 21.6052L8.20313 20.1129L27.8177 12.2396L24.1881 29.8015Z" fill="white"/>
</svg>
