<svg width="42" height="42" viewBox="0 0 42 42" fill="none" xmlns="http://www.w3.org/2000/svg">
<path d="M20.398 9.00195C18.473 9.02795 14.331 9.34395 12.014 11.467C10.294 13.177 9.69297 15.698 9.62297 18.82C9.56297 21.93 9.49297 27.77 15.123 29.361V31.781C15.123 31.781 15.085 32.751 15.725 32.951C16.515 33.201 16.965 32.452 17.715 31.652L19.115 30.072C22.965 30.392 25.915 29.653 26.255 29.543C27.035 29.293 31.436 28.732 32.156 22.891C32.896 16.86 31.796 13.06 29.816 11.34L29.806 11.338C29.206 10.788 26.806 9.03795 21.436 9.01795C21.436 9.01795 21.04 8.99295 20.398 9.00195ZM20.465 10.699C21.01 10.696 21.345 10.719 21.345 10.719C25.885 10.729 28.056 12.099 28.566 12.559C30.236 13.988 31.094 17.415 30.466 22.451C29.866 27.331 26.296 27.641 25.636 27.851C25.356 27.941 22.756 28.581 19.484 28.371C19.484 28.371 17.045 31.312 16.285 32.072C16.165 32.202 16.025 32.242 15.935 32.222C15.805 32.192 15.765 32.032 15.775 31.812L15.795 27.793C11.024 26.473 11.304 21.491 11.354 18.891C11.414 16.291 11.904 14.159 13.354 12.719C15.311 10.949 18.829 10.709 20.464 10.699H20.465ZM20.825 13.299C20.7856 13.2988 20.7466 13.3065 20.7102 13.3214C20.6739 13.3364 20.6408 13.3584 20.6129 13.3862C20.585 13.414 20.5629 13.447 20.5478 13.4833C20.5327 13.5196 20.525 13.5586 20.525 13.598C20.525 13.6775 20.5566 13.7538 20.6128 13.8101C20.6691 13.8663 20.7454 13.898 20.825 13.898C21.5684 13.8838 22.3073 14.017 22.999 14.2899C23.6907 14.5628 24.3215 14.97 24.855 15.488C25.945 16.548 26.476 17.968 26.496 19.828C26.496 19.8674 26.5037 19.9064 26.5188 19.9428C26.5339 19.9792 26.556 20.0122 26.5838 20.0401C26.6117 20.0679 26.6448 20.09 26.6812 20.1051C26.7176 20.1202 26.7566 20.128 26.796 20.128V20.119C26.8755 20.119 26.9518 20.0873 27.0081 20.0311C27.0644 19.9748 27.096 19.8985 27.096 19.819C27.1331 18.9442 26.9917 18.0711 26.6805 17.2528C26.3694 16.4345 25.8949 15.688 25.286 15.059C24.096 13.899 22.594 13.299 20.824 13.299H20.825ZM16.871 13.989C16.6583 13.9586 16.4416 14.0009 16.256 14.109H16.244C15.834 14.349 15.456 14.649 15.096 15.049C14.826 15.369 14.675 15.688 14.635 15.998C14.6114 16.1798 14.6285 16.3645 14.685 16.539L14.705 16.549C15.0132 17.4551 15.4154 18.3265 15.905 19.149C16.5396 20.3008 17.3193 21.3665 18.225 22.32L18.255 22.36L18.295 22.39L18.325 22.42L18.355 22.45C19.3122 23.3579 20.3807 24.1409 21.535 24.78C22.855 25.5 23.657 25.84 24.137 25.98V25.99C24.277 26.03 24.405 26.05 24.535 26.05C24.9447 26.0201 25.3326 25.8539 25.637 25.578C26.027 25.228 26.337 24.84 26.567 24.43V24.42C26.797 23.99 26.717 23.579 26.387 23.299C25.7219 22.7172 25.0019 22.2014 24.237 21.759C23.727 21.479 23.207 21.649 22.997 21.929L22.547 22.498C22.317 22.778 21.897 22.738 21.897 22.738L21.885 22.748C18.765 21.948 17.935 18.789 17.935 18.789C17.935 18.789 17.895 18.359 18.185 18.139L18.745 17.689C19.015 17.469 19.205 16.949 18.915 16.439C18.4731 15.6737 17.9573 14.9536 17.375 14.289C17.2483 14.1319 17.0695 14.0254 16.871 13.989ZM21.344 14.879C21.2644 14.8792 21.1882 14.9111 21.1321 14.9675C21.0761 15.024 21.0447 15.1004 21.045 15.18C21.0452 15.2595 21.0771 15.3357 21.1335 15.3918C21.19 15.4479 21.2664 15.4792 21.346 15.479C22.3467 15.4963 23.2997 15.9099 23.996 16.629C24.3101 16.9755 24.5516 17.3814 24.7062 17.8228C24.8607 18.2643 24.9253 18.7322 24.896 19.199C24.8962 19.2783 24.928 19.3544 24.9842 19.4104C25.0404 19.4665 25.1166 19.498 25.196 19.498L25.206 19.51C25.2455 19.51 25.2845 19.5022 25.321 19.487C25.3575 19.4719 25.3906 19.4497 25.4185 19.4217C25.4463 19.3938 25.4684 19.3606 25.4834 19.3241C25.4984 19.2876 25.5061 19.2484 25.506 19.209C25.536 18.019 25.166 17.019 24.436 16.219C23.706 15.419 22.686 14.969 21.386 14.879C21.372 14.878 21.358 14.878 21.344 14.879ZM21.834 16.498C21.7939 16.4968 21.7539 16.5035 21.7164 16.5178C21.6789 16.532 21.6445 16.5535 21.6153 16.5811C21.5861 16.6086 21.5626 16.6416 21.5462 16.6782C21.5297 16.7148 21.5207 16.7543 21.5195 16.7945C21.5183 16.8346 21.525 16.8745 21.5393 16.912C21.5535 16.9496 21.5751 16.9839 21.6026 17.0131C21.6301 17.0423 21.6631 17.0658 21.6997 17.0823C21.7364 17.0987 21.7759 17.1078 21.816 17.109C22.806 17.159 23.286 17.659 23.346 18.689C23.3486 18.7668 23.3813 18.8405 23.4373 18.8947C23.4933 18.9488 23.5681 18.979 23.646 18.979H23.656C23.6963 18.9777 23.7359 18.9683 23.7725 18.9514C23.8091 18.9345 23.8419 18.9104 23.8689 18.8806C23.896 18.8507 23.9168 18.8157 23.93 18.7776C23.9433 18.7395 23.9487 18.6992 23.946 18.659C23.876 17.319 23.146 16.568 21.846 16.498C21.842 16.4979 21.838 16.4979 21.834 16.498Z" fill="white"/>
</svg>
