<svg width="42" height="42" viewBox="0 0 42 42" fill="none" xmlns="http://www.w3.org/2000/svg">
<path fill-rule="evenodd" clip-rule="evenodd" d="M28.5031 12.4882C27.3961 11.3792 26.079 10.4999 24.6281 9.9011C23.1771 9.30233 21.6213 8.99607 20.0506 9.00004C13.4642 9.00004 8.1025 14.335 8.09983 20.8927C8.09983 22.9885 8.64958 25.034 9.69451 26.8384L8 33L14.3348 31.3453C16.087 32.2947 18.0502 32.7925 20.0452 32.7933H20.0506C26.6356 32.7933 31.9973 27.4584 32 20.9007C32.0045 19.338 31.6978 17.79 31.0976 16.3461C30.4974 14.9022 29.6156 13.5909 28.5031 12.4882ZM20.0506 30.7863H20.0466C18.2676 30.7865 16.5213 30.3101 14.991 29.4072L14.6289 29.1925L10.8699 30.1742L11.8722 26.5271L11.6366 26.1535C10.642 24.5775 10.1154 22.7538 10.1178 20.8927C10.1205 15.4425 14.5757 11.0084 20.0546 11.0084C21.3594 11.0055 22.6518 11.2602 23.8571 11.7578C25.0623 12.2553 26.1565 12.9859 27.0762 13.9071C28.0008 14.8239 28.7337 15.914 29.2324 17.1144C29.7312 18.3148 29.9859 19.6017 29.982 20.9007C29.9793 26.3509 25.5241 30.7863 20.0506 30.7863ZM25.4988 23.382C25.1993 23.2323 23.7324 22.5143 23.4582 22.4149C23.1853 22.3155 22.987 22.2665 22.7873 22.5633C22.5877 22.86 22.0153 23.529 21.8409 23.7278C21.6665 23.9265 21.4922 23.9503 21.194 23.802C20.8958 23.6536 19.9334 23.3396 18.7927 22.3275C17.9048 21.5392 17.3058 20.5668 17.1314 20.2687C16.9571 19.9707 17.1128 19.8104 17.2632 19.662C17.3977 19.5295 17.5614 19.3149 17.7105 19.1413C17.8595 18.9678 17.9088 18.8446 18.0086 18.6459C18.1085 18.4471 18.0592 18.2736 17.9833 18.1252C17.9088 17.9755 17.3111 16.5129 17.0622 15.9181C16.8213 15.3418 16.575 15.4187 16.3913 15.4107C16.2011 15.403 16.0107 15.3994 15.8203 15.4001C15.6689 15.404 15.5199 15.4389 15.3827 15.5027C15.2455 15.5666 15.123 15.6579 15.0229 15.7711C14.7487 16.0691 13.978 16.7872 13.978 18.2497C13.978 19.7123 15.0482 21.1259 15.1973 21.3246C15.3464 21.5233 17.3031 24.524 20.2981 25.8117C21.0116 26.1177 21.568 26.3005 22.0006 26.4383C22.7154 26.6648 23.3664 26.6317 23.8815 26.5562C24.4552 26.4714 25.6479 25.8382 25.8968 25.144C26.1457 24.4498 26.1457 23.8549 26.0712 23.7304C25.9966 23.6059 25.7956 23.5304 25.4988 23.382Z" fill="white"/>
</svg>
